<svg id="visual" viewBox="0 0 900 600" width="900" height="600" xmlns="http://www.w3.org/2000/svg" xmlns:xlink="http://www.w3.org/1999/xlink" version="1.1"><path d="M0 130L15 125.2C30 120.3 60 110.7 90 123.5C120 136.3 150 171.7 180 188.5C210 205.3 240 203.7 270 187.3C300 171 330 140 360 138.8C390 137.7 420 166.3 450 163.3C480 160.3 510 125.7 540 109.7C570 93.7 600 96.3 630 115.2C660 134 690 169 720 172.7C750 176.3 780 148.7 810 138.7C840 128.7 870 136.3 885 140.2L900 144L900 0L885 0C870 0 840 0 810 0C780 0 750 0 720 0C690 0 660 0 630 0C600 0 570 0 540 0C510 0 480 0 450 0C420 0 390 0 360 0C330 0 300 0 270 0C240 0 210 0 180 0C150 0 120 0 90 0C60 0 30 0 15 0L0 0Z" fill="#FF0066" stroke-linecap="round" stroke-linejoin="miter"></path></svg>