<svg id="visual" viewBox="0 0 900 600" width="900" height="600" xmlns="http://www.w3.org/2000/svg" xmlns:xlink="http://www.w3.org/1999/xlink" version="1.1"><path d="M0 261L15 251.2C30 241.3 60 221.7 90 247.3C120 273 150 344 180 377.8C210 411.7 240 408.3 270 375.7C300 343 330 281 360 278.7C390 276.3 420 333.7 450 327.8C480 322 510 253 540 221.2C570 189.3 600 194.7 630 232.3C660 270 690 340 720 347.2C750 354.3 780 298.7 810 278.7C840 258.7 870 274.3 885 282.2L900 290L900 0L885 0C870 0 840 0 810 0C780 0 750 0 720 0C690 0 660 0 630 0C600 0 570 0 540 0C510 0 480 0 450 0C420 0 390 0 360 0C330 0 300 0 270 0C240 0 210 0 180 0C150 0 120 0 90 0C60 0 30 0 15 0L0 0Z" fill="#FF0066" stroke-linecap="round" stroke-linejoin="miter"></path></svg>